<svg xmlns="http://www.w3.org/2000/svg" xmlns:xlink="http://www.w3.org/1999/xlink" viewBox="0 0 20 22.24"><defs><clipPath id="clip-path" transform="translate(0 0)"><rect width="20" height="22.24" style="fill:none"/></clipPath></defs><title>Asset 1</title><g id="Layer_2" data-name="Layer 2"><g id="Layer_1-2" data-name="Layer 1"><g style="clip-path:url(#clip-path)"><path d="M16.47,13.65H3.63V6.6L10,2.67a65.43,65.43,0,0,1,6.5,3.93ZM9.72,0,0,5.84V8.21H1.26l0,7.4h17.4V8.22H20V6C16.67,3.83,13.2,2,9.72,0" transform="translate(0 0)" style="fill:#fff"/></g><rect x="6.59" y="9.92" width="6.65" height="2.12" style="fill:#fff"/><rect x="6.57" y="7.24" width="6.65" height="2.12" style="fill:#fff"/><polygon points="2.37 18.84 1.2 18.84 1.2 16.63 2.35 16.63 2.35 16.9 1.41 16.9 1.41 17.57 2.28 17.57 2.28 17.84 1.41 17.84 1.41 18.58 2.37 18.58 2.37 18.84" style="fill:#fff"/><g style="clip-path:url(#clip-path)"><path d="M3.47,18.2l.2.22a1.2,1.2,0,0,0,.17-.68c0-.52-.21-.9-.55-.9s-.55.38-.55.9.21.9.55.9a.4.4,0,0,0,.23-.07l-.16-.18Zm.47.81-.24-.26a.6.6,0,0,1-.41.15c-.59,0-.77-.69-.77-1.16s.18-1.16.77-1.16.77.69.77,1.16a1.57,1.57,0,0,1-.23.86l.22.23Z" transform="translate(0 0)" style="fill:#fff"/><path d="M5.53,16.64v1.43c0,.45-.2.83-.64.83s-.61-.38-.61-.79V16.64h.21V18c0,.48.21.61.4.61s.42-.13.42-.61V16.64Z" transform="translate(0 0)" style="fill:#fff"/></g><path d="M6.63,17.94,6.4,17h0l-.25,1Zm-.56.26-.17.64H5.69l.6-2.21h.24l.57,2.21H6.86l-.16-.64Z" transform="translate(0 0)" style="fill:#fff"/><polygon points="7.46 18.58 8.27 18.58 8.27 18.84 7.25 18.84 7.25 16.64 7.46 16.64 7.46 18.58" style="fill:#fff"/><polygon points="10.04 16.64 10.26 16.64 10.26 18.84 10.04 18.84 10.04 17.81 9.22 17.81 9.22 18.84 9 18.84 9 16.64 9.22 16.64 9.22 17.55 10.04 17.55 10.04 16.64" style="fill:#fff"/><g style="clip-path:url(#clip-path)"><path d="M11.24,16.84c-.34,0-.55.38-.55.9s.21.9.55.9.55-.38.55-.9-.21-.9-.55-.9m0,2.06c-.59,0-.77-.68-.77-1.16s.18-1.16.77-1.16.77.69.77,1.16-.18,1.16-.77,1.16" transform="translate(0 0)" style="fill:#fff"/><path d="M13.26,16.64V18c0,.48-.22.61-.42.61s-.4-.13-.4-.61V16.64h-.21v1.47c0,.41.18.79.61.79s.64-.38.64-.83V16.64Z" transform="translate(0 0)" style="fill:#fff"/><path d="M14.73,17.28c0-.34-.21-.45-.39-.45a.34.34,0,0,0-.36.39.26.26,0,0,0,.19.28l.45.14a.54.54,0,0,1,.36.59.59.59,0,0,1-.62.67.54.54,0,0,1-.48-.21.84.84,0,0,1-.16-.56h.2c0,.4.23.52.44.52a.36.36,0,0,0,.41-.37c0-.23-.08-.3-.34-.39l-.32-.1a.48.48,0,0,1-.34-.52c0-.34.16-.68.55-.68.55,0,.61.46.62.7Z" transform="translate(0 0)" style="fill:#fff"/></g><rect x="15.23" y="16.63" width="0.21" height="2.21" style="fill:#fff"/><polygon points="16.82 16.64 17.02 16.64 17.02 18.84 16.78 18.84 15.98 17.06 15.97 17.06 15.97 18.84 15.77 18.84 15.77 16.64 16.02 16.64 16.81 18.42 16.82 18.42 16.82 16.64" style="fill:#fff"/><g style="clip-path:url(#clip-path)"><path d="M18,17.66h.69v1.18h-.14l-.05-.29a.6.6,0,0,1-.52.35.56.56,0,0,1-.48-.25,1.49,1.49,0,0,1-.25-.93c0-.54.23-1.14.75-1.14a.72.72,0,0,1,.67.73h-.21c-.07-.38-.3-.46-.47-.46s-.52.32-.52.89.1.91.53.91a.41.41,0,0,0,.32-.14.82.82,0,0,0,.17-.59H18Z" transform="translate(0 0)" style="fill:#fff"/><path d="M1.91,20.18c-.4,0-.64.38-.64.9s.24.9.64.9.64-.38.64-.9-.24-.9-.64-.9m0,2.06c-.69,0-.9-.68-.9-1.16s.21-1.16.9-1.16.9.69.9,1.16-.21,1.16-.9,1.16" transform="translate(0 0)" style="fill:#fff"/><path d="M3.33,21h.5c.22,0,.38-.1.38-.4a.33.33,0,0,0-.37-.37H3.33Zm0,1.19H3.08V20h.83a.56.56,0,0,1,.55.62c0,.31-.15.65-.55.65H3.33Z" transform="translate(0 0)" style="fill:#fff"/><path d="M5,21h.5c.22,0,.38-.1.38-.4a.33.33,0,0,0-.37-.37H5Zm0,1.19H4.75V20h.83a.56.56,0,0,1,.55.62c0,.31-.15.65-.55.65H5Z" transform="translate(0 0)" style="fill:#fff"/><path d="M7.2,20.18c-.4,0-.64.38-.64.9s.24.9.64.9.64-.38.64-.9-.24-.9-.64-.9m0,2.06c-.69,0-.9-.68-.9-1.16s.21-1.16.9-1.16.9.69.9,1.16-.21,1.16-.9,1.16" transform="translate(0 0)" style="fill:#fff"/><path d="M8.63,21h.58c.18,0,.38-.06.38-.38s-.21-.37-.33-.37H8.63Zm0,1.2H8.38V20h.86a.54.54,0,0,1,.61.59.56.56,0,0,1-.26.53c.1.05.21.11.22.41l0,.4c0,.12,0,.17.09.22v0H9.61a3.22,3.22,0,0,1,0-.55c0-.18,0-.39-.33-.39H8.63Z" transform="translate(0 0)" style="fill:#fff"/></g><polygon points="10 19.97 10 20.24 10.62 20.24 10.62 22.18 10.87 22.18 10.87 20.24 11.5 20.24 11.5 19.97 10 19.97" style="fill:#fff"/><g style="clip-path:url(#clip-path)"><path d="M12.9,20v1.39c0,.48-.26.61-.49.61s-.47-.13-.47-.61V20h-.25v1.47a.71.71,0,0,0,.71.79.74.74,0,0,0,.75-.83V20Z" transform="translate(0 0)" style="fill:#fff"/></g><polygon points="14.72 19.97 14.72 21.75 14.71 21.75 13.79 19.97 13.49 19.97 13.49 22.18 13.73 22.18 13.73 20.4 13.74 20.4 14.68 22.18 14.96 22.18 14.96 19.97 14.72 19.97" style="fill:#fff"/><rect x="15.34" y="19.97" width="0.25" height="2.21" style="fill:#fff"/><polygon points="15.81 19.97 15.81 20.24 16.43 20.24 16.43 22.18 16.68 22.18 16.68 20.24 17.31 20.24 17.31 19.97 15.81 19.97" style="fill:#fff"/><polygon points="18.68 19.97 18.15 21.03 17.62 19.97 17.33 19.97 18.03 21.29 18.03 22.18 18.28 22.18 18.28 21.29 18.98 19.97 18.68 19.97" style="fill:#fff"/></g></g></svg>