                <svg version="1.1" id="Layer_1" xmlns="http://www.w3.org/2000/svg" xmlns:xlink="http://www.w3.org/1999/xlink" x="0px" y="0px" width="176px" height="147px" viewBox="0 0 176 147" enable-background="new 0 0 176 147" aria-label="Highland House West Apartments in Chevy Chase Maryland" xml:space="preserve">
                    <g>
<title>Highland House West Apartments in Chevy Chase, MD</title>
<description>Logo of Highland House West Apartments near Friendship Heights Metro Station</description>
                            <rect x="20.6" y="22.1" transform="matrix(0.7071 -0.7071 0.7071 0.7071 -28.6901 67.1372)" fill="none" width="92.2" height="92.2"/>
                        <g>
                            <linearGradient id="SVGID_1_" gradientUnits="userSpaceOnUse" x1="66.7823" y1="126.4213" x2="66.7823" y2="6.2475">
                                <stop  offset="0" style="stop-color:#F9EFE8"/>
                                <stop  offset="0.1681" style="stop-color:#F4E5D8"/>
                                <stop  offset="0.4759" style="stop-color:#EACCB3"/>
                                <stop  offset="0.8858" style="stop-color:#D9A77F"/>
                                <stop  offset="1" style="stop-color:#D49C71"/>
                            </linearGradient>
                            <polygon fill="url(#SVGID_1_)" points="126.9,66.3 66.8,126.4 6.7,66.3 66.8,6.2"/>
                            <g>
                                <path fill="#AB5410" d="M66.5,2.7L2.9,66.3l39.2,39.2l0.5-0.5c0,0-38.3-38.3-38.8-38.8c0.5-0.5,62.5-62.5,63-63
                                    c0.5,0.5,62.5,62.5,63,63C129.3,66.8,112,84,112,84l0.5,0.5l18.2-18.2L66.8,2.4L66.5,2.7z"/>
                                <g>
                                    <g>
                                        <path fill="#AB5410" d="M38.6,106.5v-1.2c2.6,0,3.2-0.6,3.2-2.3V86.2c0-1.7-0.6-2.3-3.2-2.3v-1.2h10.1v1.2
                                            c-2.8,0-3.4,0.6-3.4,2.3v7.2h10.2v-7.2c0-1.7-0.6-2.3-3.2-2.3v-1.2H62v1.2c-2.5,0-3.1,0.6-3.1,2.3V103c0,1.7,0.6,2.3,3.2,2.3
                                            v1.2h-9.9v-1.2c2.6,0,3.2-0.6,3.2-2.3v-8.4H45.3v8.4c0,1.7,0.6,2.3,3.4,2.3v1.2H38.6z"/>
                                        <path fill="#AB5410" d="M63.4,106.5v-1.2c2,0,2.6-0.3,2.6-1.4V92.9c0-1.1-0.6-1.4-2.6-1.4v-1.2l5.8-0.2v13.8
                                            c0,1.1,0.6,1.4,2.6,1.4v1.2H63.4z M69.1,84.9c0,1.1-0.9,1.9-1.9,1.9c-1,0-1.9-0.8-1.9-1.9c0-1.1,0.9-1.9,1.9-1.9
                                            C68.2,83,69.1,83.8,69.1,84.9z"/>
                                        <path fill="#AB5410" d="M77.7,105.2c-1.5,0-3.4-0.6-3.4-2.4c0-1.5,2.7-2.5,3.9-2.8V100c-2.2-0.8-4.1-2.4-4.1-4.9
                                            c0-2.5,2.5-5.2,6.3-5.2c2,0,2.9,0.3,3.8,0.8c0-1.7,1-2.6,2.6-2.6c1,0,2.1,0.3,2.1,1.9c0,0.8-0.6,1.4-1.4,1.4
                                            c-0.8,0-1.4-0.5-1.4-1.1c0-0.3,0.1-0.7,0.1-0.8c-0.1,0-0.2,0-0.3,0c-0.3,0-0.9,0.4-0.9,1.3v0.4c0.7,0.5,1.2,1.1,1.6,1.7
                                            c0.4,0.6,0.6,1.3,0.6,2.2c0,2.2-2,5.1-5.4,5.3c-3.9,0.3-5.1,0.7-5.1,1.6c0,2.3,12-0.7,12,5.6c0,4.1-4.8,5.9-8.4,5.9
                                            c-4.1,0-7.4-1.9-7.4-4.4C73.1,106.9,75.7,105.5,77.7,105.2L77.7,105.2z M80.6,112.2c3.8,0,5.9-1.7,5.9-3.5c0-1.7-2-2.8-6.3-2.8
                                            c-3.2,0-4.6,1.4-4.6,2.7C75.6,110.5,77.9,112.2,80.6,112.2z M77.7,95.2c0,2.8,1.2,4.2,3.1,4.2c1.9,0,3.1-1.3,3.1-4.2
                                            c0-2.8-1.2-4.2-3.1-4.2C78.9,91,77.7,92.4,77.7,95.2z"/>
                                        <path fill="#AB5410" d="M105.9,103.8c0,1.1,0.6,1.4,2.4,1.4v1.2h-5.7V95c0-3-1.5-3.7-2.8-3.7c-2.5,0-4.2,3.2-4.2,5.8v6.8
                                            c0,1.1,0.6,1.4,2.7,1.4v1.2H90v-1.2c1.8,0,2.4-0.3,2.4-1.4V85.6c0-1.1-0.6-1.4-2.4-1.4V83l5.7-0.2v10.5h0.1
                                            c0.9-2.1,2.6-3.4,5-3.4c2.4,0,5.1,1.3,5.1,6.3V103.8z"/>
                                        <path fill="#AB5410" d="M109.3,106.5v-1.2c2,0,2.6-0.3,2.6-1.4V85.6c0-1.1-0.6-1.4-2.6-1.4V83l5.9-0.2v21.1
                                            c0,1.1,0.6,1.4,2.6,1.4v1.2H109.3z"/>
                                        <path fill="#AB5410" d="M136,102.5c0,2.2-1.1,4.2-3.5,4.2c-2,0-2.5-1.3-2.8-3.1h-0.1c-1,2.5-3,3.3-5.5,3.3
                                            c-2.4,0-4.9-1.3-4.9-4c0-4,7.3-5.5,10.2-6.5v-3.2c0-1.7-2.2-2.1-3.5-2.1c-1.2,0-2.2,0.2-3.2,0.9c0.9,0.2,1.5,0.9,1.5,1.8
                                            c0,1-0.8,2-2,2c-1.2,0-2-1-2-2c0-2.1,2.7-3.9,5.9-3.9c4.5,0,6.7,1.1,6.7,4.7v8.3c0,1.7,0.4,1.9,1.1,1.9c1.1,0,1.3-1.6,1.3-2.4
                                            H136z M129.4,97.5c-2.4,0.6-6.5,2.3-6.5,5.3c0,1.5,0.8,2.7,2.4,2.7c2.2,0,4.1-2,4.1-5V97.5z"/>
                                        <path fill="#AB5410" d="M141.3,90.1v3.2h0.1c1.2-2.1,2.9-3.4,5.3-3.4c2.4,0,5.1,1.3,5.1,6.3v7.7c0,1.1,0.6,1.4,2.4,1.4v1.2
                                            h-5.7V95c0-3-1.5-3.7-2.8-3.7c-2.5,0-4.2,3.2-4.2,5.8v6.8c0,1.1,0.6,1.4,2.7,1.4v1.2h-8.4v-1.2c1.8,0,2.4-0.3,2.4-1.4V92.9
                                            c0-1.1-0.6-1.4-2.4-1.4v-1.2L141.3,90.1z"/>
                                        <path fill="#AB5410" d="M167.8,85.6c0-1.1-0.6-1.4-2.6-1.4V83l5.8-0.2V104c0,1.1,0.6,1.4,2.3,1.4v1l-5.4,0.2v-3.2h-0.1
                                            c-0.9,2.1-2.7,3.4-5.3,3.4c-3.5,0-6.8-3.9-6.8-8.5c0-4.6,3.3-8.5,7.6-8.5c1.9,0,3.2,0.7,4.3,2.6h0.1V85.6z M167.9,98.3
                                            c0-4.7-1.6-7.2-4.2-7.2c-3,0-4.2,3-4.2,7.2c0,5.1,1.5,7.4,4,7.4C166.2,105.7,167.9,102.9,167.9,98.3z"/>
                                    </g>
                                    <g>
                                        <path fill="#AB5410" d="M38,129.5v-0.9c2,0,2.4-0.5,2.4-1.8v-13c0-1.3-0.5-1.8-2.4-1.8v-0.9h7.8v0.9c-2.2,0-2.6,0.5-2.6,1.8
                                            v5.6h7.9v-5.6c0-1.3-0.5-1.8-2.5-1.8v-0.9h7.6v0.9c-1.9,0-2.4,0.5-2.4,1.8v13c0,1.3,0.5,1.8,2.5,1.8v0.9h-7.7v-0.9
                                            c2,0,2.4-0.5,2.4-1.8v-6.5h-7.9v6.5c0,1.3,0.5,1.8,2.7,1.8v0.9H38z"/>
                                        <path fill="#AB5410" d="M70.6,123.3c0,3.9-2.9,6.6-6.5,6.6c-3.6,0-6.5-2.7-6.5-6.6c0-3.9,2.9-6.6,6.5-6.6
                                            C67.8,116.7,70.6,119.4,70.6,123.3z M67.8,123.3c0-4.4-1.4-5.7-3.6-5.7c-2.2,0-3.6,1.3-3.6,5.7c0,4.4,1.4,5.7,3.6,5.7
                                            C66.3,129,67.8,127.6,67.8,123.3z"/>
                                        <path fill="#AB5410" d="M81.9,129.7v-2.5h-0.1c-1,1.7-2.2,2.7-4.1,2.7c-2.4,0-4-1.6-4-4.8v-6c0-0.9-0.5-1.1-1.9-1.1V117h4.4
                                            v9.2c0,1.5,0.6,2.6,2,2.6c2.2,0,3.1-2,3.4-3.8v-6c0-0.9-0.5-1.1-2.1-1.1V117h4.6v10.5c0,0.9,0.5,1.1,1.9,1.1v0.9L81.9,129.7z"
                                            />
                                        <path fill="#AB5410" d="M87.1,129.7v-4.6h0.7c0.6,2.3,2.3,3.8,4.7,3.8c1.3,0,2.8-0.8,2.8-2.2c0-3.7-8.2-1.6-8.2-6.3
                                            c0-2.3,2.1-3.7,4.5-3.7c2.3,0,3,0.9,3.5,0.9c0.4,0,0.6-0.4,0.6-0.7h0.9v3.9h-0.9c-0.8-2-1.8-3.2-4-3.2c-1.2,0-2.4,0.5-2.4,1.8
                                            c0,3.2,8.2,1.2,8.2,6.1c0,2.9-2.3,4.3-5,4.3c-2.4,0-3.1-1-4-1c-0.5,0-0.6,0.5-0.7,0.9H87.1z"/>
                                        <path fill="#AB5410" d="M102,123.2c0,3.7,1.6,5.8,3.9,5.8c1.8,0,3-1.1,4-2.5l0.6,0.4c-1.2,1.8-2.7,2.9-5.5,2.9
                                            c-3.3,0-5.9-3-5.9-6.6c0-3.5,2.6-6.6,5.9-6.6c3.1,0,5.6,2.2,5.6,6.5H102z M107.9,122.3c0-1.9-0.4-4.7-3-4.7
                                            c-2.6,0-2.9,2.8-2.9,4.7H107.9z"/>
                                        <path fill="#AB5410" d="M118.7,111.2h6.7v0.9c-1.5,0-1.9,0.3-1.9,1c0,0.4,0.2,1.1,0.4,1.6l2.9,9.9h0.1l2.7-8.9l-0.7-2.4
                                            c-0.3-0.9-0.5-1.2-2-1.2v-0.9h6.8v0.9c-1.5,0-2.1,0.3-2.1,1.1c0,0.6,0.4,1.4,0.6,2.2l2.8,9.4h0.1l2.9-9.5
                                            c0.2-0.5,0.4-1.3,0.4-2c0-0.9-0.4-1.2-2.3-1.2v-0.9h5.9v0.9c-1.6,0-2,0.7-2.7,2.7l-4.6,14.7h-0.9l-3.6-12h-0.1l-3.7,12h-0.9
                                            l-4.8-15.9c-0.4-1.2-0.6-1.5-1.9-1.5V111.2z"/>
                                        <path fill="#AB5410" d="M144.1,123.2c0,3.7,1.6,5.8,3.9,5.8c1.8,0,3-1.1,4-2.5l0.6,0.4c-1.2,1.8-2.7,2.9-5.5,2.9
                                            c-3.3,0-5.9-3-5.9-6.6c0-3.5,2.6-6.6,5.9-6.6c3.1,0,5.6,2.2,5.6,6.5H144.1z M150.1,122.3c0-1.9-0.4-4.7-3-4.7
                                            c-2.6,0-2.9,2.8-2.9,4.7H150.1z"/>
                                        <path fill="#AB5410" d="M154.4,129.7v-4.6h0.7c0.6,2.3,2.3,3.8,4.7,3.8c1.3,0,2.9-0.8,2.9-2.2c0-3.7-8.2-1.6-8.2-6.3
                                            c0-2.3,2.1-3.7,4.5-3.7c2.3,0,3,0.9,3.5,0.9c0.4,0,0.6-0.4,0.6-0.7h0.9v3.9h-0.9c-0.8-2-1.8-3.2-4-3.2c-1.2,0-2.4,0.5-2.4,1.8
                                            c0,3.2,8.2,1.2,8.2,6.1c0,2.9-2.3,4.3-5,4.3c-2.4,0-3.1-1-4-1c-0.5,0-0.6,0.5-0.7,0.9H154.4z"/>
                                        <path fill="#AB5410" d="M170,112.9v4.2h3.7v0.9H170v9.6c0,1.1,0.7,1.4,1.5,1.4c1,0,1.9-0.7,1.9-2.9v-0.6h0.7v0.5
                                            c0,2.4-0.7,3.9-3.4,3.9c-1.9,0-3.3-0.6-3.3-3.2v-8.7h-1.9V117c2.5-0.2,2.8-0.9,3.5-4.2H170z"/>
                                    </g>
                                </g>
                            </g>
                            <g>
                                <path fill="#D49C71" d="M70.8,73.1c0.5-2.3,2.6-8.4,9.3-10c1.4-0.2,3.2,0.4,3.6,1.7c0.4,1.3-1.2,3.3-3.8,3.4
                                    C77.4,68.3,72.9,69.4,70.8,73.1z"/>
                                <path fill="#D49C71" d="M63.8,73.2c-0.5-2.3-2.4-8.5-9.1-10.1c-1.4-0.3-3.2,0.3-3.6,1.6c-0.4,1.3,1.2,3.3,3.7,3.4
                                    C57.3,68.2,61.8,69.4,63.8,73.2z"/>
                                <g>
                                    <path fill="#D49C71" d="M77.4,74.8c-4,0.9-6.7,2.6-8.5,5.1c-0.4,0.5-0.7,0.6-0.7,0.4c0-0.3,0.1-0.6,0.5-1.2
                                        c2.6-3.6,6.2-7.1,10.8-8.2c6.7-1.5,13.1,2,18.1,0.9c3.7-0.8,6.7-2.5,10.4-5.4c1-0.9,1.4-1,1.4-0.8c0,0.3-0.1,0.7-1,1.7
                                        c-3.3,3.9-8.2,7.2-13.6,8.4C89.3,77.1,82.2,73.7,77.4,74.8z"/>
                                    <path fill="#D49C71" d="M77.9,73.7c2.5-0.9,9.6-2.6,15.7,2.8c1.2,1.2,1.8,3.2,0.9,4.4c-1,1.1-3.9,0.8-5.7-1.5
                                        C86.9,76.9,82.8,73.4,77.9,73.7z"/>
                                </g>
                                <g>
                                    <path fill="#D49C71" d="M55.1,74.8c4,0.9,6.7,2.6,8.5,5.1c0.4,0.5,0.7,0.6,0.7,0.4c0-0.3-0.1-0.6-0.5-1.2
                                        c-2.6-3.6-6.2-7.1-10.8-8.2c-6.7-1.5-13.1,2-18.1,0.9c-3.7-0.8-6.7-2.5-10.4-5.4c-1-0.9-1.4-1-1.4-0.8c0,0.3,0.1,0.7,0.9,1.7
                                        c3.3,3.9,8.2,7.2,13.6,8.4C43.2,77.1,50.3,73.7,55.1,74.8z"/>
                                    <path fill="#D49C71" d="M54.6,73.7c-2.5-0.9-9.6-2.6-15.7,2.8c-1.2,1.2-1.8,3.2-0.9,4.4c1,1.1,3.9,0.8,5.7-1.5
                                        C45.6,76.9,49.7,73.4,54.6,73.7z"/>
                                </g>
                                <g>
                                    <path fill="#D49C71" d="M68.1,64c0.3,4.2-0.6,7.3-2.7,9.6c-0.4,0.5-0.4,0.8-0.2,0.8c0.3,0,0.6-0.2,1.1-0.8
                                        c2.9-3.4,5.5-7.7,5.1-12.7c-0.5-7-6.1-12.7-6.5-18c-0.3-3.9,0.5-7.3,2.3-11.6c0.6-1.2,0.6-1.6,0.3-1.6c-0.3,0-0.6,0.2-1.5,1.3
                                        c-3,4.2-4.9,9.8-4.5,15.5C62,52.5,67.7,58.9,68.1,64z"/>
                                    <path fill="#D49C71" d="M69.8,64.9c-2.2-5.4-7.2-13.4-11.1-13.4c-1.4,0-2.1,1-1.8,2c-2-0.3-3-1.4-3-2.9c0-1.7,1.3-3,3.3-3.1
                                        C62.4,47.1,69.2,57.9,69.8,64.9z"/>
                                </g>
                                <path fill="#D49C71" d="M68.9,84.9c0,1.3-1.1,2.4-2.4,2.4c-1.3,0-2.4-1.1-2.4-2.4c0-1.3,1.1-2.4,2.4-2.4
                                    C67.8,82.5,68.9,83.6,68.9,84.9z"/>
                            </g>
                            <g>
                                <g>
                                    <path fill="#00539F" d="M71.6,73.1c0.5-2.3,2.6-8.4,9.3-10c1.4-0.2,3.2,0.4,3.6,1.7c0.4,1.3-1.2,3.3-3.8,3.4
                                        C78.2,68.3,73.7,69.4,71.6,73.1z"/>
                                    <path fill="#00539F" d="M64.5,73.2c-0.5-2.3-2.4-8.5-9.1-10.1c-1.4-0.3-3.2,0.3-3.6,1.6c-0.4,1.3,1.2,3.3,3.7,3.4
                                        C58.1,68.2,62.5,69.4,64.5,73.2z"/>
                                    <g>
                                        <path fill="#00539F" d="M78.2,74.8c-4,0.9-6.7,2.6-8.5,5.1c-0.4,0.5-0.7,0.6-0.7,0.4c0-0.3,0.1-0.6,0.5-1.2
                                            c2.6-3.6,6.2-7.1,10.8-8.2c6.7-1.5,13.1,2,18.1,0.9c3.7-0.8,6.7-2.5,10.4-5.4c1-0.9,1.4-1,1.4-0.8c0,0.3-0.1,0.7-0.9,1.7
                                            c-3.3,3.9-8.2,7.2-13.6,8.4C90.1,77.1,83,73.7,78.2,74.8z"/>
                                        <path fill="#00539F" d="M78.7,73.7c2.5-0.9,9.6-2.6,15.7,2.8c1.2,1.2,1.8,3.2,0.9,4.4c-1,1.1-3.9,0.8-5.7-1.5
                                            C87.7,76.9,83.6,73.4,78.7,73.7z"/>
                                    </g>
                                    <g>
                                        <path fill="#00539F" d="M55.9,74.8c4,0.9,6.7,2.6,8.5,5.1c0.4,0.5,0.7,0.6,0.7,0.4c0-0.3-0.1-0.6-0.5-1.2
                                            c-2.6-3.6-6.2-7.1-10.8-8.2c-6.7-1.5-13.1,2-18.1,0.9c-3.7-0.8-6.7-2.5-10.4-5.4c-1-0.9-1.4-1-1.4-0.8c0,0.3,0.1,0.7,0.9,1.7
                                            c3.3,3.9,8.2,7.2,13.6,8.4C44,77.1,51.1,73.7,55.9,74.8z"/>
                                        <path fill="#00539F" d="M55.4,73.7c-2.5-0.9-9.6-2.6-15.7,2.8c-1.2,1.2-1.8,3.2-0.9,4.4c1,1.1,3.9,0.8,5.7-1.5
                                            C46.4,76.9,50.5,73.4,55.4,73.7z"/>
                                    </g>
                                    <g>
                                        <path fill="#00539F" d="M68.8,64c0.3,4.2-0.6,7.3-2.7,9.6c-0.4,0.5-0.4,0.8-0.2,0.8c0.3,0,0.6-0.2,1.1-0.8
                                            c2.9-3.4,5.5-7.7,5.1-12.7c-0.5-7-6.1-12.7-6.5-18c-0.3-3.9,0.5-7.3,2.3-11.6c0.6-1.2,0.6-1.6,0.3-1.6c-0.3,0-0.6,0.2-1.5,1.3
                                            c-3,4.2-4.9,9.8-4.5,15.5C62.8,52.5,68.5,58.9,68.8,64z"/>
                                        <path fill="#00539F" d="M70.5,64.9c-2.2-5.4-7.2-13.4-11.1-13.4c-1.4,0-2.1,1-1.8,2c-2-0.3-3-1.4-2.9-2.9c0-1.7,1.3-3,3.3-3.1
                                            C63.2,47.1,70,57.9,70.5,64.9z"/>
                                    </g>
                                    <path fill="#00539F" d="M69.6,84.9c0,1.3-1.1,2.4-2.4,2.4c-1.3,0-2.4-1.1-2.4-2.4c0-1.3,1.1-2.4,2.4-2.4
                                        C68.5,82.5,69.6,83.6,69.6,84.9z"/>
                                </g>
                                <g>
                                    <g>
                                        <path fill="#00539F" d="M55.4,138.1h0.9l1.8,6.3h-0.8l-0.5-1.8h-2l-0.5,1.8h-0.8L55.4,138.1z M55.9,138.6L55.9,138.6L55,142
                                            h1.7L55.9,138.6z"/>
                                        <path fill="#00539F" d="M61.5,144.4v-6.3h1.7c0.5,0,1.1,0.1,1.5,0.4c0.4,0.4,0.5,0.8,0.5,1.4c0,0.7-0.2,1.4-0.9,1.7
                                            c-0.4,0.2-1.2,0.2-1.6,0.2h-0.4v2.7H61.5z M62.2,141.1h0.7c1,0,1.6-0.1,1.5-1.2c0-1-0.7-1.2-1.5-1.1h-0.7V141.1z"/>
                                        <path fill="#00539F" d="M69.6,138.1h0.9l1.8,6.3h-0.8l-0.5-1.8h-2l-0.5,1.8h-0.8L69.6,138.1z M70,138.6L70,138.6l-0.9,3.4h1.7
                                            L70,138.6z"/>
                                        <path fill="#00539F" d="M76.3,144.4h-0.7v-6.3h1.6c1.3,0,2.2,0.3,2.1,1.8c0,0.7-0.5,1.3-1.2,1.4v0c0.8,0.1,1,0.3,1.1,1.2
                                            c0,0.5,0.1,0.9,0.1,1.4c0,0.1,0.1,0.4,0.2,0.4v0.1h-0.8c-0.2-0.4-0.2-1.2-0.2-1.6c0-0.6-0.3-1.2-1.1-1.2h-1.2V144.4z M76.3,141
                                            h1.1c0.3,0,1.2-0.1,1.2-1.2c0-1.1-0.9-1.1-1.3-1.1h-1V141z"/>
                                        <path fill="#00539F" d="M82.6,138.1h4v0.6h-1.6v5.7h-0.7v-5.7h-1.6V138.1z"/>
                                        <path fill="#00539F" d="M93.9,138.1h1.2v6.3h-0.7v-5.2c0-0.3,0-0.5,0-0.8h0c-0.1,0.4-0.1,0.6-0.2,0.9l-1.3,5.2h-0.8l-1.3-5.2
                                            c-0.1-0.2-0.1-0.4-0.2-0.8h0c0,0.3,0,0.5,0,0.8v5.2h-0.7v-6.3h1.2l1.2,4.9c0.1,0.3,0.1,0.5,0.1,0.9h0c0-0.3,0.1-0.6,0.2-0.9
                                            L93.9,138.1z"/>
                                        <path fill="#00539F" d="M98.9,144.4v-6.3h3.2v0.6h-2.5v2.1h2.3v0.6h-2.3v2.3h2.5v0.6H98.9z"/>
                                        <path fill="#00539F" d="M108.9,138.1h0.7v6.3h-1.2l-1.8-5.1c-0.1-0.3-0.2-0.6-0.2-1h0c0,0.3,0,0.6,0,1v5.1h-0.7v-6.3h1.1
                                            l1.8,5.2c0.1,0.2,0.1,0.4,0.2,0.7h0c0-0.2,0-0.5,0-0.7V138.1z"/>
                                        <path fill="#00539F" d="M112.9,138.1h4v0.6h-1.6v5.7h-0.7v-5.7h-1.6V138.1z"/>
                                        <path fill="#00539F" d="M124.9,144.4v-6.3h0.7v2.6h2.4v-2.6h0.7v6.3H128v-3.1h-2.4v3.1H124.9z"/>
                                        <path fill="#00539F" d="M134.5,138c1.9,0,2.1,1.7,2.1,3.2c0,1.8-0.2,3.5-2.1,3.5c-1.9,0-2.1-1.7-2.1-3.5
                                            C132.4,139.7,132.6,138,134.5,138z M134.5,138.6c-1.1,0-1.4,1.1-1.3,2.5c0,1.8,0.2,2.8,1.4,2.8c1.2,0,1.4-1,1.4-2.8
                                            C135.8,139.7,135.6,138.6,134.5,138.6z"/>
                                        <path fill="#00539F" d="M144.3,138.1h1.2v6.3h-0.7v-5.2c0-0.3,0-0.5,0-0.8h0c-0.1,0.4-0.1,0.6-0.2,0.9l-1.3,5.2h-0.8l-1.3-5.2
                                            c-0.1-0.2-0.1-0.4-0.2-0.8h0c0,0.3,0,0.5,0,0.8v5.2h-0.7v-6.3h1.2l1.2,4.9c0.1,0.3,0.1,0.5,0.1,0.9h0c0-0.3,0.1-0.6,0.2-0.9
                                            L144.3,138.1z"/>
                                        <path fill="#00539F" d="M149.3,144.4v-6.3h3.2v0.6H150v2.1h2.3v0.6H150v2.3h2.5v0.6H149.3z"/>
                                        <path fill="#00539F" d="M158.8,139.8c0-0.7-0.3-1.2-1-1.2c-1,0-1.1,0.6-1.1,1.1c0,0.4,0.2,0.7,0.6,0.9c0.3,0.1,0.7,0.3,1,0.4
                                            c1.2,0.4,1.4,0.9,1.4,1.7c0,1.2-0.8,1.9-2,1.9c-0.6,0-1.4-0.2-1.7-1c-0.1-0.3-0.1-0.8-0.1-1.2h0.7c0,0.9,0.1,1.5,1.2,1.5
                                            c0.7,0,1.2-0.4,1.2-1.1c0-1-0.4-1-1-1.2c-0.3-0.1-0.9-0.3-1.2-0.5c-0.6-0.3-0.8-0.8-0.8-1.4c0-1,0.7-1.7,1.8-1.7
                                            c1.2,0,1.9,0.6,1.8,1.8H158.8z"/>
                                    </g>
                                    <rect x="37.8" y="133.6" fill="#00539F" width="136.7" height="0.8"/>
                                </g>
                            </g>
                        </g>
                    </g>
            </svg>